<?xml version="1.0" encoding="utf-8"?>
<!-- Generator: Adobe Illustrator 15.1.0, SVG Export Plug-In . SVG Version: 6.00 Build 0)  -->
<!DOCTYPE svg PUBLIC "-//W3C//DTD SVG 1.1//EN" "http://www.w3.org/Graphics/SVG/1.1/DTD/svg11.dtd">
<svg version="1.1" id="Layer_1" xmlns="http://www.w3.org/2000/svg" xmlns:xlink="http://www.w3.org/1999/xlink" x="0px" y="0px"
	 width="300px" height="226.5px" viewBox="0 0 300 226.5" enable-background="new 0 0 300 226.5" xml:space="preserve">
<g>
	<path fill="#FFFFFF" d="M299,133.3c0-0.2-0.1-0.4-0.3-0.6l0,0l0.6-0.4c0.5-0.3,0.7-0.9,0.6-1.4l-3.7-21.8l-0.1-0.6
		c-0.1-0.5-0.4-0.9-0.8-1.1c-0.4-0.2-0.9-0.2-1.3,0.1l-6.5,3.8l-2.2,1.6l-1,0.8c-0.1,0-0.1,0.1-0.2,0.2l-0.9,1c0,0-0.1,0.1-0.1,0.1
		l-1,1.5l-1.6,1.5l-1.5,0.2l-0.8-0.2c-0.3-0.1-0.6,0-0.9,0.1l-2.3,1c-0.1,0-0.2,0.1-0.2,0.1l-0.9,0.6l-1,0.4
		c-0.1,0.1-0.3,0.1-0.4,0.2l-0.5,0.4l-1.3-0.6c-0.2-0.1-0.4-0.2-0.6-0.2h-0.4c0-0.1-0.1-0.1-0.1-0.1l-0.9-1c-0.3-0.3-0.6-0.5-1-0.5
		c-0.4,0-0.8,0.1-1.1,0.4l-0.5,0.5l-0.8-0.6c-0.2-0.1-0.4-0.2-0.6-0.3l-1.4-0.3l-0.9-0.4c-0.1-0.1-0.3-0.1-0.5-0.1l-1-0.1l0.3-0.7
		l1.8-3.1c0.1-0.2,0.2-0.4,0.2-0.7l0.1-3l0.2-0.7l0.2-0.3l1-0.7c0.1-0.1,0.2-0.2,0.3-0.3l0.8-1c0.2-0.3,0.3-0.6,0.3-1l-0.1-1.8
		l0.1-0.1c0,0,0,0.1,0.1,0.1c0.4,0.5,1.1,0.7,1.7,0.4l0.7-0.3c0.3-0.1,0.5-0.3,0.7-0.6l0.6-1c0.1-0.2,0.2-0.4,0.2-0.6l0.2-2.3
		c0-0.2,0-0.4-0.1-0.5l-0.2-0.8l0.1-1.5l0.1-0.1c0.2-0.3,0.3-0.7,0.3-1.1l-0.1-0.8c0-0.3-0.2-0.6-0.5-0.9l-0.8-1.4l-0.4-1.1
		l-1.2-4.4c0-0.1-0.1-0.2-0.2-0.3l-0.5-0.9l-1.1-4.1c0-0.1-0.1-0.2-0.1-0.3l-1.2-2.2c-0.1-0.1-0.1-0.2-0.2-0.3l-1-1
		c-0.1-0.1-0.3-0.2-0.5-0.3l-1-0.4c-0.1,0-0.2-0.1-0.3-0.1l-1.1-0.2c-0.4-0.1-0.8,0-1.1,0.3l-1.5,1.1l-0.9,0.3
		c-0.2,0.1-0.3,0.2-0.4,0.3l-1,0.9l-0.8,0.3c-0.6,0.3-1,0.9-0.9,1.6l0.1,0.7l-0.3,1.1l-0.7,0.5c-0.2,0.1-0.3,0.3-0.4,0.5l-0.5,0.9
		l-0.1,0.1c-0.1-0.1-0.3-0.1-0.4-0.1l-0.7-0.1l-0.6-0.5l-0.1-1l0.1-1.4l0.4-0.3l0.8-0.1c0.4-0.1,0.8-0.3,1-0.7l1-1.7
		c0.1-0.2,0.2-0.4,0.2-0.7l0.1-2l0.1-0.3l0.6-0.3c0.1-0.1,0.2-0.1,0.3-0.2l1-1c0.3-0.3,0.5-0.8,0.4-1.2l-0.4-3.3l0.1-2.1
		c0-0.1,0-0.3,0-0.4l-0.5-2.2c0-0.1-0.1-0.2-0.1-0.3l-0.5-1c-0.1-0.2-0.3-0.4-0.5-0.6l-0.9-0.5l-0.1-0.1l0.1,0
		c0.7-0.1,1.2-0.7,1.2-1.4v-1c0-0.5-0.2-0.9-0.6-1.2l-0.4-0.3l-0.5-0.6l-0.2-0.8c-0.1-0.3-0.3-0.6-0.6-0.8l-1.1-0.7
		c-0.2-0.1-0.5-0.2-0.8-0.2H249l-0.9-0.4c-0.1,0-0.1-0.1-0.2-0.1l-2.2-0.6l-0.9-0.5c-0.2-0.1-0.4-0.2-0.6-0.2h-0.9l-0.3-0.1
		l-0.3-0.6c-0.1-0.2-0.3-0.4-0.5-0.5l-1-0.6c-0.1-0.1-0.2-0.1-0.3-0.1l-1-0.3c-0.2-0.1-0.5-0.1-0.7,0l-0.8,0.2h-0.4l-0.6-0.5
		c-0.1-0.1-0.3-0.2-0.5-0.3l-0.9-0.3l-0.3-0.1v-1.6l0.2,0.1c0.4,0.2,0.9,0.3,1.3,0.1l0.8-0.3l4.8,0.1c0.2,0,0.3,0,0.4-0.1l1-0.3
		c0.3,0.3,0.6,0.5,1,0.5c0,0,0.1,0,0.1,0l2.2-0.2c0.2,0,0.4-0.1,0.6-0.2l1.1-0.7c0.7-0.4,0.9-1.3,0.5-2l-0.6-1
		c-0.1-0.1-0.2-0.2-0.3-0.3l-1.1-1c-0.3-0.2-0.6-0.4-1-0.4h-1c-0.5,0-0.9,0.2-1.2,0.6c-0.3,0.4-0.3,0.9-0.2,1.3l0.1,0.2l-0.1,0
		c-0.1-0.2-0.3-0.3-0.5-0.4l-0.4-0.2l0-0.2c0-0.5-0.3-0.9-0.8-1.1l-1-0.5c-0.2-0.1-0.3-0.1-0.5-0.1l-0.1-0.1l0-0.5
		c0-0.1,0-0.2-0.1-0.3l-0.3-1c0-0.1-0.1-0.2-0.1-0.3l-0.6-1.1c-0.1-0.1-0.1-0.2-0.2-0.3l-0.9-1c-0.4-0.4-0.9-0.6-1.4-0.4l-0.8,0.2
		c-0.3,0.1-0.5,0.2-0.7,0.4l-0.1,0.1c-0.1,0.1-0.1,0.1-0.2,0.2l-0.1,0.2c-0.4-0.4-1-0.6-1.6-0.4l-1.8,0.7l-1-0.2l-0.1-3.5
		c0-0.4-0.2-0.8-0.5-1.1c-0.3-0.3-0.7-0.4-1.1-0.3l-2.1,0.3c-0.1,0-0.2,0-0.3,0.1l-1,0.4c-0.1,0-0.1,0.1-0.2,0.1l-1.9,1.2l-0.7,0.2
		l-4.2,0.3c-0.1,0-0.3,0-0.4,0.1l-0.9,0.4l-1.8,0.4c-0.3,0.1-0.5,0.2-0.7,0.4l-0.9,0.9l-2,1.3c-0.2,0.1-0.3,0.2-0.4,0.4l-1,1.3
		c-0.2-0.1-0.4-0.1-0.6-0.1l-0.8,0.1l-0.5-0.1l-0.7-0.7c-0.4-0.4-1-0.5-1.5-0.3l-2.3,0.9l-0.5,0l-0.4-0.2l-0.4-0.7
		c-0.1-0.1-0.1-0.2-0.2-0.3l-1.8-1.9l-0.5-1c-0.2-0.4-0.6-0.6-1-0.7l-0.7-0.1l-0.7-0.7c-0.2-0.2-0.4-0.3-0.7-0.3l-1.1-0.2
		c-0.1,0-0.2,0-0.3,0h-2.2c-0.1,0-0.2,0-0.3,0c-0.1-0.1-0.1-0.1-0.2-0.2c-0.3-0.2-0.8-0.3-1.1-0.2l0.6-1.1l1.7-2l1-0.9
		c0.2-0.2,0.4-0.5,0.4-0.8h0.3c0.3,0,0.6-0.1,0.8-0.3l1-0.7c0.4-0.3,0.6-0.7,0.6-1.2c0-0.5-0.2-0.9-0.6-1.2l-1-0.7
		c-0.3-0.2-0.6-0.3-0.9-0.3l-2.2,0.1c-0.1,0-0.2,0-0.4,0.1l-2.4,0.7c-0.1,0-0.3,0.1-0.4,0.2l-2.1,1.4c-0.2,0.1-0.3,0.2-0.4,0.4
		l-1.6,2.3l-0.2,0.3c0,0-0.1,0-0.1,0c-0.4,0-0.9,0.2-1.2,0.5l-2.3,2.6c-0.1,0.1-0.1,0.1-0.2,0.2l-0.4,0.6l-1.8,0.8
		c-0.2,0.1-0.3,0.2-0.5,0.3l-1.1,1.1l-0.8,0.6l-0.7,0.3l-0.9,0.1c-0.1,0-0.2,0-0.3,0.1l-0.8,0.3h-0.9c-0.2,0-0.5,0.1-0.7,0.2
		l-1.1,0.6c-0.1,0.1-0.3,0.2-0.4,0.3l-1.8,2l-3,1.3c-0.1,0-0.1,0-0.1,0.1l-0.6,0.4l-1.1-0.1l-0.8-0.4c-0.1-0.1-0.3-0.1-0.4-0.1
		l-1.1-0.2c-0.1,0-0.2,0-0.3,0v-0.3l0.5-0.7c0.1-0.2,0.2-0.4,0.2-0.6l0.2-1.1c0.1-0.5-0.1-1.1-0.6-1.4l-1.1-0.8
		c-0.4-0.3-1-0.4-1.5-0.1l-1.4,0.6c-0.1,0-0.2,0.1-0.3,0.2l-0.9,0.8l-0.9,0.5l-1,0.3c-0.1,0-0.3,0.1-0.4,0.2l-2,1.2l-4,1.5l-0.7,0.1
		l-0.1,0l2.6-2.1l1-0.9c0.1-0.1,0.1-0.1,0.2-0.2l0.5-0.7l1-0.8c0.1-0.1,0.1-0.1,0.2-0.2l2.8-3.2c0-0.1,0.1-0.1,0.1-0.2l1.1-1.6
		l3.8-3.7l3.1-1.8l1.9-0.9l1-0.3c0.1,0,0.2-0.1,0.3-0.1l3.6-1.9l1-0.6c0.1-0.1,0.2-0.1,0.3-0.2l1-1l0.9-0.7c0.5-0.4,0.7-1,0.6-1.6
		c-0.2-0.6-0.7-1-1.4-1H172c-0.2,0-0.4,0-0.6,0.1l-0.5,0.2c-0.1-0.1-0.1-0.2-0.2-0.2l-1-1c-0.3-0.3-0.7-0.5-1.2-0.4l-2.2,0.2
		c-0.1,0-0.2,0-0.2,0l-0.9,0.3l-2-0.1c-0.1,0-0.3,0-0.5,0l-0.7,0.2c-0.1-0.3-0.2-0.5-0.4-0.7c0-0.3-0.2-0.7-0.4-0.9
		c-0.3-0.3-0.7-0.5-1.2-0.4l-1.1,0.1c-0.2,0-0.5,0.1-0.7,0.2l-2.2,1.5c-0.1,0.1-0.2,0.1-0.2,0.2l-0.8,0.8l-1.6,0.7l-0.7-0.1
		l-1.1-0.6l-0.1-0.2c-0.1-0.4-0.4-0.8-0.8-1l-2.6-1.1l-0.2-0.5c-0.2-0.4-0.5-0.7-1-0.9l-1.1-0.3c-0.2-0.1-0.4-0.1-0.6,0l-1.7,0.2
		c-0.2,0-0.5,0.1-0.7,0.3c-0.1-0.2-0.2-0.4-0.4-0.5l-1-0.9c-0.1-0.1-0.2-0.2-0.4-0.2c-0.1-0.5-0.4-0.9-0.9-1.1l-4.4-1.8
		c-0.2-0.1-0.4-0.1-0.5-0.1h-2.4c0,0-0.1,0-0.1,0l-1,0.1c-0.1,0-0.2,0-0.3,0.1L131,12c-0.1,0-0.2,0.1-0.3,0.2l-0.4,0.1
		c-0.4,0.1-0.8,0.3-1,0.7l-0.3,0.5l-1.6,0.4l-0.1-0.1l-0.1-0.5c-0.2-0.6-0.6-1-1.2-1l-4.3-0.5l-0.7-0.5c-0.2-0.2-0.5-0.3-0.8-0.3
		H118l-0.5-0.2l-0.3-0.3l0.1-1c0-0.2,0-0.3-0.1-0.5l-0.9-3l-0.6-3.3c0-0.3-0.2-0.5-0.3-0.7l-0.9-1c-0.2-0.3-0.6-0.4-0.9-0.5
		l-1.9-0.2l-0.5-0.2c-0.5-0.2-1-0.1-1.4,0.1c-0.4,0.3-0.6,0.7-0.6,1.2l0.1,4.8l-7.3,0.2H87.5l-10,0L55,5.9L28.6,4.8L11,3.6
		c-0.4,0-0.8,0.1-1.1,0.4C9.6,4.3,9.5,4.7,9.5,5.1l0,0.3L5.9,56.1c0,0,0,0,0,0c0,0,0,0,0,0L5,70.5l-0.4,0.9
		c-0.1,0.2-0.1,0.3-0.1,0.5l-2.4,33.7c0,0,0,0,0,0c0,0,0,0,0,0l-2.3,33.9c-0.1,0.8,0.5,1.5,1.3,1.5l11.6,0.8l12.1,0.6l0.1,0
		L24,158.1l0,0c0,0,0,0,0,0l-2.5,51.1c0,0.4,0.1,0.8,0.4,1c0.3,0.3,0.6,0.5,1,0.5l21.4,0.9l30.3,0.7h30.5c0,0,0,0,0,0l15.2-0.3
		l0.2,7c0,0.8,0.7,1.5,1.5,1.4l13.5-0.3l21.4-0.9l23.9-1.5l0.4,0.3l0.5,0.6l0.2,0.6v0.4l-0.3,0.4l-0.9,0.5c-0.2,0.1-0.4,0.2-0.5,0.4
		l-0.8,1.1c0,0.1-0.1,0.1-0.1,0.2l-0.5,1c-0.2,0.4-0.2,0.8,0,1.2l0.5,1.1c0.2,0.5,0.8,0.8,1.3,0.8c0.1,0,0.1,0,0.2,0l7.8-0.8
		c0.5-0.1,1-0.4,1.2-0.9l0.7-1.7l0.6-0.9c0.3-0.5,0.3-1.1-0.1-1.6l0.1-0.1c0.5-0.4,0.7-1,0.5-1.6c0.2-0.1,0.3-0.3,0.5-0.6
		c0.2-0.4,0.2-0.8,0-1.1l0,0l0.7-0.6c0.3-0.2,0.4-0.5,0.5-0.8l0.1-0.6l0.6,0.2c0.4,0.1,0.8,0.1,1.1-0.1c0.4-0.2,0.6-0.5,0.7-0.8
		l0.5-1.6c0.1-0.4,0.1-0.8-0.1-1.1l0.1-0.1c0.4-0.3,0.6-0.9,0.5-1.4l-0.3-1.3l0.2-0.9c0-0.2,0-0.4,0-0.6l-0.2-0.9c0,0,0-0.1,0-0.1
		c0-0.1-0.1-0.2-0.2-0.3c0-0.1-0.1-0.1-0.1-0.2c0,0,0-0.1-0.1-0.1l-0.2-0.2l1-1.4l0.3-0.1l0.5,0.1l0.9,0.4c0.1,0,0.2,0.1,0.2,0.1
		l1.9,0.6l0.8,0.5c0.2,0.1,0.3,0.2,0.5,0.2l1,0.2c0.6,0.1,1.2-0.1,1.5-0.7l0.8-1.4c0.2-0.4,0.3-0.8,0.2-1.2l-0.3-1
		c-0.1-0.2-0.1-0.3-0.3-0.5l-0.6-0.8l-0.1-0.4l0.4-0.2c0.1,0,0.2-0.1,0.2-0.1l0.9-0.6l1.9-0.5c0.3-0.1,0.6-0.3,0.8-0.6l0.7-1
		c0.4-0.5,0.3-1.2,0-1.7l-0.6-0.9l0-0.2l0.4-0.5c0.1-0.1,0.1-0.2,0.2-0.3l0.1-0.3c0,0,0.1,0,0.1,0c0.5,0,1-0.3,1.2-0.7l0.6-1
		c0,0,0-0.1,0-0.1l0.3,0c0.1,0,0.2,0,0.3,0c0.1,0.1,0.3,0.3,0.4,0.3c0.4,0.2,0.8,0.2,1.2,0.1l1-0.4c0.5-0.2,0.8-0.6,0.9-1.1
		c0.1,0,0.3-0.1,0.4-0.1l0.5-0.2l2.5,0.9l0.9,0.7c0.3,0.3,0.7,0.4,1.2,0.3c0.4-0.1,0.8-0.3,1-0.7l0.6-1c0.1-0.2,0.2-0.5,0.2-0.7
		l0.2-0.3l0.6-0.3c0.1,0,0.1,0,0.2-0.1c0.2,0.2,0.5,0.4,0.8,0.5l0.8,0.2l0.9,0.6c0.4,0.3,0.9,0.3,1.4,0.1c0.4-0.2,0.8-0.6,0.8-1.1
		l0.1-0.8l0.6-0.8c0.2-0.3,0.3-0.7,0.3-1l-0.1-0.6l0.3-0.4l0.3-0.2l0.1,0.2c0.2,0.3,0.4,0.5,0.7,0.6l1,0.4c0.1,0.1,0.3,0.1,0.4,0.1
		l2.2,0.2c0.3,0,0.6,0,0.9-0.2l1-0.6c0.4-0.2,0.6-0.6,0.7-1l0.2-1.1c0-0.1,0-0.3,0-0.4L237,183l0.3-0.8l0,0c0.4,0,0.8-0.1,1.1-0.4
		l1-0.9c0.3-0.2,0.4-0.5,0.5-0.9l0.2-1.5l0.5-0.3c0.2-0.1,0.3-0.2,0.4-0.4l0.8-1c0.1-0.2,0.2-0.3,0.3-0.5l0.3-1.1
		c0.1-0.3,0.1-0.6,0-0.8l-0.2-0.7l0.3-0.1l0.6,0.4c0.5,0.3,1.2,0.3,1.7-0.1l1.8-1.5l2-0.5c0.5-0.1,0.9-0.6,1-1.1l0.2-1
		c0.1-0.4,0-0.9-0.3-1.3l-0.4-0.5l0.1-0.2c0.2-0.4,0.1-0.8-0.1-1.2l-0.2-0.3l0.1,0l0.3,0.2c0.4,0.3,0.8,0.3,1.2,0.2l1.3-0.4l1.6,0.7
		l0.4,0.8c0,0.1,0.1,0.2,0.1,0.2l1.7,2.2c0.2,0.3,0.5,0.5,0.9,0.5l1.1,0.2c0.1,0,0.3,0,0.4,0l2-0.2l2,1.5c0.3,0.2,0.7,0.4,1,0.3
		l1.1-0.1c0.4,0,0.8-0.3,1.1-0.6l0.3-0.5l0.2,0l0.7,0.1l0.7,0.6c0.4,0.4,1.1,0.5,1.6,0.2l0.7-0.4h0.7c0.5,0,1-0.3,1.2-0.7l0.5-0.9
		l0.6-0.5l0.2,0.4c0.1,0.2,0.2,0.3,0.3,0.4l1,1c0.2,0.2,0.5,0.4,0.9,0.4l0.6,0.1l0.6,0.5l0.8,0.9c0,0,0.1,0.1,0.1,0.1l0.1,0.1
		c0.3,0.3,0.6,0.4,1,0.4c0.1,0,0.2,0,0.3,0l1-0.2c0.1,0,0.2-0.1,0.3-0.1l1.6-0.7c0.2-0.1,0.4-0.2,0.5-0.4l0.8-1
		c0.2-0.3,0.3-0.6,0.3-0.9v-0.4l0.5-0.3c0.5-0.3,0.7-0.8,0.7-1.4l-0.2-2.1c0-0.2-0.1-0.5-0.2-0.7l-0.1-0.1l0.1-0.2l0.1-0.2
		c0.2-0.3,0.3-0.6,0.3-0.9v-0.9l0.1-0.4l0.5,0.8c0.3,0.4,0.8,0.7,1.4,0.6c0.5-0.1,1-0.4,1.2-0.9l0.4-1l0.6-0.9
		c0.3-0.5,0.3-1.2-0.1-1.6l-0.2-0.2l0.2-0.3c0.1-0.2,0.2-0.5,0.2-0.8v-0.9l0.1-0.3l1.1-0.6c0.5-0.3,0.8-0.7,0.8-1.3v-0.6l0,0
		l0.8,0.3c0.5,0.2,1.1,0.1,1.5-0.3l2.1-1.9c0.1-0.1,0.2-0.2,0.3-0.3l1.3-2l1.2-1.1c0.2-0.2,0.4-0.5,0.4-0.8l0.4-2.1
		c0-0.1,0-0.3,0-0.4l-0.1-0.9l0.2-0.8c0-0.2,0-0.3,0-0.5c0.2-0.2,0.3-0.5,0.3-0.8l0.1-1.4c0-0.1,0-0.2,0-0.4l-0.2-0.9l0.5-2.8l0.4-1
		c0.1-0.3,0.1-0.5,0.1-0.8L299,133.3z M236.4,55.2c0.3,0.2,0.6,0.3,0.9,0.3h1c0.1,0,0.2,0,0.3,0l0.6-0.1l0.5,0.2l0.6,0.3l0.4,0.7
		c0.2,0.3,0.5,0.5,0.8,0.6l1,0.3c0.1,0,0.3,0.1,0.4,0.1h0.8l0.7,0.4c0.1,0,0.2,0.1,0.3,0.1l2.2,0.6l1,0.5c0.2,0.1,0.4,0.1,0.6,0.1
		h0.6l0.3,0.2l0.2,0.5c0.1,0.2,0.1,0.3,0.3,0.5l0.6,0.7c-0.2,0.2-0.3,0.4-0.4,0.7l-0.4,1.4c-0.1,0.4-0.1,0.8,0.1,1.2l0.6,1
		c0.1,0.2,0.3,0.4,0.5,0.5l0.8,0.5l0.3,0.5l0.4,1.8l-0.1,2c0,0.1,0,0.2,0,0.2l0.3,2.7l-0.4,0.4l-0.9,0.5c-0.3,0.2-0.5,0.5-0.6,0.8
		l-0.3,1c0,0.1-0.1,0.2-0.1,0.3l-0.1,1.8l-0.5,0.8l-0.5,0.1c-0.2,0-0.4,0.1-0.6,0.3l-1.1,0.8c-0.3,0.2-0.5,0.6-0.6,1l-0.2,2.2
		c0,0.1,0,0.2,0,0.2l0.1,1.7c0,0.4,0.2,0.7,0.5,1l1.4,1.2c0.2,0.2,0.5,0.3,0.8,0.4l0.9,0.1l0.8,0.3c0.6,0.2,1.3,0,1.7-0.5l0.8-1.1
		c0-0.1,0.1-0.1,0.1-0.2l0.4-0.8l0.8-0.6c0.2-0.2,0.4-0.4,0.5-0.7l0.5-1.9c0-0.2,0.1-0.4,0-0.5c0.1-0.1,0.3-0.1,0.4-0.2l1-0.9
		l0.8-0.3c0.1,0,0.2-0.1,0.3-0.2l1.2-0.9l0.4,0.1l0.6,0.3l0.7,0.7l1.1,1.9l1.1,4.1c0,0.1,0.1,0.3,0.2,0.4l0.5,0.9l1.2,4.3
		c0,0.1,0,0.1,0.1,0.2l0.5,1.2c0,0.1,0.1,0.1,0.1,0.2l0.9,1.6c-0.1,0.2-0.2,0.4-0.2,0.6l-0.2,2.2c0,0.2,0,0.4,0.1,0.6l0.2,0.8l0,0.2
		c-0.4-0.2-1-0.3-1.4,0l-1.1,0.6c-0.4,0.2-0.6,0.5-0.7,1l-0.1,0.7l-0.6,0.8c-0.2,0.3-0.3,0.6-0.3,0.9l0.1,1.7l-0.4,0.5l-1.1,0.8
		c-0.2,0.1-0.3,0.3-0.4,0.5l-0.4,0.6c-0.1,0.1-0.1,0.2-0.1,0.3l-0.3,1c0,0.1-0.1,0.2-0.1,0.4l-0.1,2.9l-1.7,2.9
		c0,0.1-0.1,0.2-0.1,0.3l-0.5,1.4l-4.2,0.9l-10.7,1.8l-0.8-0.6c-0.3-0.2-0.7-0.3-1-0.3l-17.6,2.2l-3.1,0.3c0,0,0-0.1,0.1-0.1l0.5-1
		c0-0.1,0.1-0.2,0.1-0.2l0.9-3.1l1.1-2.1c0-0.1,0.1-0.1,0.1-0.2l0.4-1.1c0-0.1,0.1-0.2,0.1-0.3l0.6-4c0-0.1,0-0.1,0-0.2v-3.2
		c0-0.1,0-0.1,0-0.2l-0.6-4.4c0-0.1-0.1-0.3-0.1-0.4l-1.2-2.6l0.2-0.4c0.3-0.5,0.3-1.2-0.1-1.7c-0.4-0.4-0.9-0.6-1.5-0.5l-2.3-4.4
		l-0.1-0.4l0.2-0.5l0.7-1c0.2-0.3,0.3-0.7,0.2-1.1l-0.8-3.2c0-0.1-0.1-0.3-0.2-0.4l-0.4-0.6l0-0.1l0.7-0.8c0.1-0.1,0.2-0.3,0.2-0.4
		l1.3-3.2c0-0.1,0.1-0.3,0.1-0.4l0.1-1.1c0-0.1,0-0.3,0-0.4l-0.2-0.8l0.2-1.6c0-0.2,0-0.4-0.1-0.6l-0.3-1.1l0.3-0.2
		c0.1,0,0.1-0.1,0.2-0.2l0.9-1c0.3-0.3,0.4-0.7,0.4-1.1l-0.1-0.5l0.5-0.7l0,0c0.6,0.2,1.2,0,1.5-0.5L224,69c0,0.2,0,0.3,0,0.5l0.2,1
		c0.1,0.6,0.6,1,1.1,1.1c0.3,0.1,0.7,0,1-0.1c0.5,0.2,1.1,0,1.5-0.4l0.9-1c0.1-0.2,0.3-0.4,0.3-0.6l0.3-1.2l0.2-1c0-0.1,0-0.2,0-0.3
		v-1.2c0-0.1,0-0.1,0-0.2l-0.4-2.8l0.3-0.4l0.8-0.6l0.7-0.4h1.1c0.4,0,0.8-0.2,1.1-0.5c0.3-0.3,0.4-0.7,0.4-1.1l-0.1-0.9
		c-0.1-0.4-0.3-0.8-0.7-1.1l-0.7-0.4l-0.2-0.4v-0.2l0.7-0.8c0.1-0.1,0.1-0.2,0.2-0.2l0.4-0.7l0.6-0.3c0.1-0.1,0.2-0.1,0.3-0.2
		l0.2-0.2l0.3,0.1c0.1,0,0.2,0.1,0.3,0.1l0.8,0.2L236.4,55.2z M209.5,123.8l-0.9-1.3l-0.2-0.8c0-0.1-0.1-0.2-0.1-0.3l-0.5-0.9
		l-0.3-1.4c-0.1-0.3-0.2-0.6-0.5-0.8l-0.9-0.8l-0.9-1.7l-0.1-0.6l0.1-2c0-0.1,0-0.1,0-0.2l-0.1-1c0,0,0,0,0,0c0,0,0,0,0,0l-0.3-2
		l0.2-0.8c0-0.1,0-0.2,0-0.3v-1.1c0-0.1,0-0.3-0.1-0.4l-0.3-1c0-0.1-0.1-0.3-0.2-0.4L204,105v-0.6c0-0.3-0.1-0.7-0.3-0.9l-0.5-0.6
		l0.1-0.3c0.1-0.3,0.1-0.6,0-0.8l-0.6-2.1l0.2-1.6l0.7-2.1c0.1-0.2,0.1-0.4,0.1-0.6l-0.1-0.8l0.1-0.7l0.5-0.9
		c0.1-0.2,0.2-0.5,0.2-0.7V91c0-0.1,0-0.2,0-0.3l-0.5-2.1v-0.7l0.4-1.9l0.3-0.7l0.8-0.6c0.3-0.2,0.4-0.5,0.5-0.8l0.1-0.5
		c0.1-0.3,0-0.5-0.1-0.8l-0.7-1.7l0.2-0.7c0-0.1,0-0.2,0-0.2l0.2-1.9l1.1-2.9c0-0.1,0-0.1,0.1-0.2l0.2-1c0-0.2,0-0.3,0-0.5
		c0.1-0.1,0.1-0.1,0.2-0.2l0.7-1c0.1-0.1,0.1-0.2,0.2-0.3l0.4-1c0.1-0.2,0.1-0.4,0.1-0.5v-0.6l0.7-1.1c0.2-0.3,0.3-0.7,0.2-1.1
		l-0.1-0.6l0.8-1.8c0.2-0.5,0.1-1.2-0.3-1.6l-0.3-0.3c-0.5-0.5-1.4-0.6-1.9-0.1l-1,0.8c-0.1,0.1-0.2,0.2-0.3,0.4l-0.6,0.9l-0.9,1
		c-0.2,0.2-0.3,0.5-0.4,0.8l-0.1,0.7l-0.6,0.7c-0.1,0.2-0.2,0.4-0.3,0.6l-0.3,1.3l-0.3,0.2c0.2-0.2,0.3-0.5,0.3-0.8v-0.5l0.2-0.8
		c0,0,0,0,0-0.1c0-0.1,0.1-0.3,0-0.4c0,0,0,0,0,0c0,0,0,0,0,0l-0.1-0.5l0.9-1.3c0,0,0.1-0.1,0.1-0.2l1.6-3.2c0-0.1,0.1-0.2,0.1-0.2
		l0.6-2l0.5-0.9l0.9-1c0,0,0.1-0.1,0.1-0.1c0.2,0.1,0.4,0.2,0.6,0.2c0.4,0.1,0.9-0.1,1.2-0.4l0.3-0.3c0,0.1,0.1,0.3,0.2,0.4
		c0.2,0.4,0.6,0.6,1.1,0.7l1,0.1c0.5,0.1,1.1-0.2,1.4-0.7l0.6-1l0.8-0.8l1.1-0.8c0.3-0.2,0.6-0.6,0.6-1.1l0.1-0.9l0.3-0.5l0.3-0.2
		l0.7-0.1l0.8,0.1c0.2,0,0.4,0,0.6-0.1l1.9-0.6h0.9c0.3,0,0.5-0.1,0.7-0.2l1-0.6c0.2-0.1,0.4-0.3,0.5-0.5l0.6-1l1.1-0.2l0.9,0.2
		c0.2,0,0.3,0.1,0.5,0l0.7-0.1l1.6,0.5l2,1.6l-0.6,0.3c-0.3,0.1-0.5,0.3-0.6,0.6l-0.6,1l-1,1.1c-0.2,0.3-0.3,0.6-0.3,0.9v1
		c0,0.2,0,0.4,0.1,0.6l0.5,1l-0.8,0.4c-0.1,0-0.1,0.1-0.2,0.1l-1,0.8c-0.1,0.1-0.2,0.2-0.3,0.3l-0.7,1c-0.1,0.1-0.1,0.2-0.2,0.4
		c-0.4-0.1-0.9,0-1.3,0.3l-1,0.8c-0.2,0.2-0.3,0.4-0.4,0.6l-0.4,0.9l-0.6,0.9c-0.1,0.2-0.2,0.3-0.2,0.5l-0.1,0.7l0,0l-0.1,0
		c-0.6-0.2-1.3,0-1.6,0.6l-1.4,2c-0.2,0.3-0.3,0.6-0.2,1l0,0.4l-0.4,0.5l-0.9,0.8c-0.5,0.4-0.7,1-0.5,1.5l0.5,1.8l-0.2,1.6
		c0,0.1,0,0.3,0,0.4l0.2,0.8l-0.1,0.7l-1.1,2.8l-0.8,1c-0.2,0.2-0.3,0.5-0.3,0.8l-0.1,1c0,0.3,0,0.6,0.2,0.9L216,86l0.6,2.4
		l-0.4,0.6c0,0.1-0.1,0.2-0.1,0.2l-0.4,1c-0.1,0.3-0.1,0.5-0.1,0.8l0.2,1c0,0.1,0.1,0.3,0.1,0.4l3,5.7c0.1,0.2,0.2,0.3,0.3,0.4
		c0,0,0,0.1,0,0.1l1.4,3.1l0.6,4.1v3l-0.6,3.7l-0.3,0.9l-1.1,2.1c0,0.1-0.1,0.2-0.1,0.3l-0.9,3.1l-0.4,0.9l-0.6,0.9l-0.9,0.9
		l-0.3,0.2c0,0,0,0,0,0l-2.1,1.5l-2,1l-0.7,0.2l-0.8-0.2L209.5,123.8z M190,31.5l1.7-1.1l1-0.3l-0.7,0.6c0,0-0.1,0.1-0.1,0.1
		l-1.5,1.8c-0.2-0.2-0.5-0.4-0.8-0.4L190,31.5z M171.6,45c0.2-0.1,0.3-0.2,0.5-0.3l1.8-2l0.6-0.3h0.8c0.1,0,0.3,0,0.4-0.1l0.9-0.3
		l1-0.1c0.1,0,0.3,0,0.4-0.1l1-0.4c0.1,0,0.2-0.1,0.3-0.2l1-0.7c0.1,0,0.1-0.1,0.2-0.2l0.9-0.9l1.9-0.8c0.3-0.1,0.5-0.3,0.7-0.6
		l0.6-0.9l1.1-1.2c0,0,0,0,0.1,0l0.5,0.3l1.2,1.5l-0.2,1.6c0,0.2,0,0.4,0.1,0.6l0.3,1c0.1,0.5,0.5,0.9,1,1c0.5,0.1,1,0,1.4-0.4
		l0.4-0.4c0,0,0.1-0.1,0.1-0.1c0.4,0.1,0.7,0,1.1-0.2l0.5-0.3c0.2-0.1,0.3-0.2,0.4-0.4l0.5-0.7l0.4-0.2h1.8l0.6,0.1l0.7,0.7
		c0.2,0.2,0.4,0.3,0.7,0.3l0.4,0.1l0.3,0.6c0.1,0.1,0.1,0.2,0.2,0.3l1.8,1.9l0.5,1c0.1,0.3,0.4,0.5,0.7,0.6l1.1,0.5
		c0.2,0.1,0.5,0.1,0.7,0.1l1-0.1c0.1,0,0.2,0,0.4-0.1l1.7-0.6l0.4,0.4c0.2,0.2,0.4,0.3,0.7,0.3l1.1,0.2c0.1,0,0.3,0,0.4,0l0.7-0.1
		l0.6,0.3c0.6,0.3,1.3,0.1,1.7-0.4l1.5-2l2-1.2c0.1-0.1,0.2-0.1,0.3-0.2l0.7-0.7l1.5-0.3c0.1,0,0.2,0,0.2-0.1l0.8-0.3l4.1-0.3
		c0.1,0,0.2,0,0.3-0.1l1-0.3c0.1,0,0.2-0.1,0.3-0.1l2-1.2l0.8-0.3l0.3,0l0.1,2.2c0,0.2,0.1,0.5,0.2,0.7l0.5,0.9
		c0.2,0.4,0.6,0.7,1,0.7l2.1,0.3c0.2,0,0.5,0,0.7-0.1l1.1-0.4l0.1,0.1c0.4,0.6,1.2,0.8,1.8,0.5l1-0.5c0.2-0.1,0.4-0.3,0.6-0.5
		l0.1-0.2l0.5,0.9l0.2,0.8l0.1,1c0,0.4,0.3,0.8,0.6,1.1l1,0.7c0.2,0.2,0.5,0.3,0.8,0.3l0,0.3c0,0.1,0,0.2,0,0.2l-2.9-0.1
		c-0.2,0-0.4,0-0.6,0.1l-0.4,0.2l-0.4-0.3c-0.3-0.2-0.7-0.2-1-0.2l-1,0.2c-0.5,0.1-1,0.5-1.1,1l-0.3,1l-1.1-0.9
		c-0.1-0.1-0.3-0.2-0.5-0.3l-2.2-0.7c-0.2-0.1-0.4-0.1-0.6-0.1l-0.8,0.1l-0.9-0.2c-0.2-0.1-0.4-0.1-0.6,0l-2.1,0.3
		c-0.4,0.1-0.8,0.3-1,0.7l-0.7,1.3l-0.4,0.2h-0.7c-0.1,0-0.3,0-0.4,0.1L219,50l-0.8-0.1c-0.1,0-0.3,0-0.4,0l-1.1,0.2
		c-0.2,0-0.4,0.1-0.5,0.2l-0.8,0.5c-0.2,0.1-0.4,0.3-0.5,0.5l-0.6,1c-0.1,0.2-0.2,0.3-0.2,0.5c-0.2-0.2-0.4-0.3-0.7-0.3l-1-0.2
		c-0.3-0.1-0.6,0-0.8,0.1l-1,0.4c-0.2,0.1-0.4,0.2-0.5,0.4l-0.4,0.4c0-0.5-0.3-1-0.8-1.3c-0.7-0.3-1.5-0.1-1.9,0.6l-0.9,1.6
		c-0.1,0.1-0.1,0.3-0.2,0.5l-0.3,1.7l-0.7,0.9c-0.1,0.1-0.1,0.1-0.2,0.2l-0.6,1.1c-0.1,0.1-0.1,0.2-0.1,0.3l-0.6,2.1l-1,2
		c0,0,0,0,0,0c0-0.1,0-0.2-0.1-0.2c0,0,0-0.1,0-0.1c-0.1-0.1-0.1-0.2-0.2-0.3c-0.1-0.2-0.3-0.3-0.5-0.4c0,0,0,0-0.1,0
		c-0.2-0.1-0.3-0.1-0.5-0.1c0,0,0,0-0.1,0c0,0-0.1,0-0.1,0l-0.6,0.1c0,0,0,0,0,0l0.2-2.2c0-0.3,0-0.5-0.1-0.8l-0.1-0.3
		c0.1-0.2,0.1-0.3,0.1-0.5c0-0.4-0.2-0.8-0.5-1l-1.1-1c-0.2-0.1-0.3-0.2-0.5-0.3l-1.7-0.5c-0.1,0-0.1,0-0.2,0l-0.1-0.8
		c0-0.5-0.3-0.9-0.7-1.1l-1-0.6c-0.2-0.1-0.4-0.2-0.6-0.2l-2.6-0.3l-1-0.4c-0.3-0.1-0.6-0.1-0.9,0l-0.7,0.2l-1.9-0.3
		c-0.2,0-0.3,0-0.5,0l-3.3-1.5c-0.1,0-0.2-0.1-0.3-0.1l-10.8-2.1l-0.9-1.5c-0.1-0.1-0.2-0.3-0.3-0.4l-0.7-0.5L171.6,45z M149.3,46.5
		l1-0.2c0.1,0,0.1,0,0.2-0.1l4.3-1.6c0.1,0,0.2-0.1,0.2-0.1l1.9-1.1l1-0.3c0.1,0,0.2-0.1,0.3-0.1l1.1-0.6c0.1,0,0.1-0.1,0.2-0.1
		l0.5-0.4l0,0c-0.2,0.2-0.3,0.5-0.3,0.8v0.8l-0.2,0.7l-0.3,0.6c-0.3,0.4-0.3,1,0,1.4c0.3,0.4,0.7,0.7,1.3,0.7h1.1
		c0.3,0,0.5-0.1,0.7-0.2l0.6-0.3l0.4,0.1l0.9,0.4c0.2,0.1,0.3,0.1,0.5,0.1l1.4,0.2l0.2,0.2c0.2,0.1,0.3,0.3,0.5,0.3l0.9,0.3l0.7,0.5
		l1.1,1.9c0.2,0.4,0.6,0.6,1,0.7l11.3,2.2l3.6,1.6c0.3,0.1,0.6,0.2,0.9,0.1l0.1,0l1.9,0.3c0.2,0,0.4,0,0.6,0l0.6-0.2l0.7,0.3
		c0.1,0,0.2,0.1,0.3,0.1l2.5,0.3l0.2,0.1l0.1,1.3c0.1,0.7,0.6,1.2,1.3,1.3l0.9,0.1l1.2,0.4l0.1,0.1c0,0.2,0.1,0.4,0.2,0.6l0.3,0.7
		l-0.1,1.6l-0.3,0.8c-0.1,0.4-0.1,0.8,0,1.1l0.4,0.9c0.3,0.6,0.9,0.9,1.5,0.9c0,0.2,0,0.3,0,0.5l0.1,1c0,0.4,0.2,0.7,0.5,0.9
		l0.9,0.8c0,0.1,0,0.2,0,0.3l-0.3,0.2l-1,0.4c-0.5,0.2-0.9,0.7-0.9,1.2l-0.1,0.7l-0.5,0.9c0,0.1-0.1,0.1-0.1,0.2l-0.8,2.2
		c0,0.1,0,0.1-0.1,0.2l-0.3,1.4c0,0.2,0,0.4,0,0.6l0.2,1c0.1,0.6,0.6,1.1,1.3,1.2l1,0.1c0.6,0.1,1.2-0.3,1.4-0.8l0.4-0.8l0.8-0.6
		c0.1-0.1,0.2-0.2,0.3-0.4l0.7-1.1c0.1-0.1,0.2-0.3,0.2-0.5l0.2-0.8l0.2-0.4l0.6-0.2c0.1,0,0.2-0.1,0.3-0.2l0.1,0l0.2,0.4l-0.1,0.5
		l-1.1,3c0,0.1-0.1,0.2-0.1,0.4l-0.2,2l-0.3,1c-0.1,0.3-0.1,0.6,0,0.9l0.6,1.5l-0.5,0.4c-0.2,0.1-0.3,0.3-0.4,0.5l-0.5,1.1
		c0,0.1-0.1,0.2-0.1,0.3l-0.5,2.2c0,0.1,0,0.2,0,0.3v1c0,0.1,0,0.2,0,0.3l0.5,2.1v0.6l-0.4,0.8c-0.1,0.1-0.1,0.3-0.2,0.4l-0.2,1.1
		c0,0.1,0,0.3,0,0.4l0.1,0.7l-0.6,2c0,0.1-0.1,0.2-0.1,0.3l-0.2,2.1c0,0.2,0,0.4,0.1,0.6l0.6,2l-0.2,0.6c-0.1,0.5,0,1,0.3,1.3
		l0.6,0.7v0.5c0,0.3,0.1,0.6,0.3,0.8l0.6,0.8l0.2,0.6v0.8l-0.2,0.9c0,0.2,0,0.3,0,0.5l0.1,0.7l-13.8,1.3l-18.6,1.1l-0.5-1.2
		c-0.2-0.5-0.6-0.8-1.1-0.9l-3.1-0.6l-0.5-0.2l-0.2-0.4l-0.2-1.1c0-0.2-0.1-0.4-0.2-0.6l-0.5-0.7l-0.2-1.5c0-0.1,0-0.1,0-0.2
		l-0.3-1.2l0.8-1.7c0.2-0.4,0.2-0.9,0-1.3l-0.5-1c-0.2-0.3-0.4-0.6-0.8-0.7l-0.2-0.1l-0.2-0.5c0-0.1-0.1-0.2-0.2-0.3l0-0.3
		c0,0,0,0,0,0c0,0,0-0.1,0-0.1c0-0.2,0-0.4-0.1-0.5c0,0,0,0,0,0l-0.3-0.7c0-0.1,0-0.2,0-0.4c0-0.1,0-0.2-0.1-0.4l-0.3-1.1l-0.4-2.8
		c0-0.2-0.1-0.4-0.2-0.6l-0.9-1.4c0-0.1-0.1-0.1-0.2-0.2l-1-1c-0.1-0.1-0.1-0.1-0.2-0.2l-1-0.7c-0.2-0.1-0.3-0.2-0.5-0.2l-0.8-0.2
		l-0.8-0.4l-1.8-1.6l-1.4-2.1c-0.1-0.2-0.2-0.3-0.4-0.4l-1.6-1c-0.1-0.1-0.2-0.1-0.3-0.2l-1.3-0.5l-0.6-0.4l-0.5-0.9
		c-0.2-0.3-0.6-0.6-1-0.6l-1.7-0.3l-0.7-0.3l-0.9-0.9c-0.1-0.1-0.1-0.1-0.2-0.2l-0.8-0.6l0-0.1c0.1-0.2,0.1-0.3,0.1-0.5l0.1-1.9
		c0-0.2,0-0.3,0-0.5l-0.5-1.8l0.3-0.7c0.1-0.2,0.1-0.5,0.1-0.7l-0.2-1.7l1-2.5c0.2-0.4,0.1-0.9-0.1-1.3l-1.2-2.2
		c-0.2-0.4-0.6-0.7-1.1-0.7l-0.3,0l-0.1-0.2v-0.2l0.5-0.5c0.1-0.1,0.1-0.2,0.2-0.3l0.6-1.1c0.1-0.1,0.1-0.3,0.1-0.4l0.1-0.5l1.6-1.2
		l2-1c0.2-0.1,0.4-0.3,0.6-0.5l0.6-0.9c0.1-0.2,0.2-0.4,0.2-0.6l0.2-1.2c0-0.1,0-0.2,0-0.3l-0.4-7.3c0.3-0.1,0.6-0.4,0.7-0.7l0-0.1
		c0.1,0.1,0.3,0.1,0.5,0.2l1.1,0.2C148.9,46.5,149.1,46.5,149.3,46.5z M173.1,121.3l0.7,0.7l0.2,0.5l-0.3,2.6l-1.2,1.7
		c-0.2,0.2-0.3,0.5-0.3,0.7l-0.2,1.7l-0.4,0.4l-1.9,0.7c-0.1,0.1-0.3,0.1-0.4,0.2l-0.8,0.6l-3.7,0.8c-0.5,0.1-0.9,0.5-1.1,0.9
		l-0.4,1.1c0,0.1-0.1,0.2-0.1,0.3l-0.3,2.2c-0.1,0.4,0.1,0.9,0.4,1.2l1.6,1.7l0.1,1.2l-1.2,1.6c-0.1,0.1-0.2,0.3-0.2,0.5l-0.2,0.7
		c0,0.1-0.1,0.3-0.1,0.4v0.9l-0.1,0.3l-2.1,1.1c-0.2,0.1-0.3,0.2-0.5,0.4l-0.8,1c-0.1,0.1-0.2,0.2-0.2,0.4c0,0,0,0.1,0,0.1
		c0,0.1,0,0.1-0.1,0.2l-1-0.7l-0.5-0.9c-0.3-0.5-0.8-0.8-1.4-0.7l-8.4,0.9l-19.5,1.1l-8.9,0.2l-13.1-0.1l0,0
		c-0.1-0.3-0.3-0.6-0.6-0.8l-0.3-0.2l0.4-2.3c0-0.2,0-0.4,0-0.6l-0.6-2.1v-1l0.2-1c0.1-0.4,0-0.8-0.3-1.2l-0.4-0.5l0.2-0.7
		c0.1-0.4,0-0.7-0.2-1.1l-0.4-0.6l0.1-0.7c0.1-0.6-0.2-1.2-0.8-1.5l-0.2-0.1v-0.1c0-0.7-0.5-1.3-1.1-1.4l0-1.1l0.2-0.9
		c0-0.2,0-0.4,0-0.6l-0.2-1c0-0.2-0.1-0.3-0.2-0.5l-0.5-0.8v-0.6c0-0.3-0.1-0.6-0.3-0.9l-1.2-1.5l-0.1-0.6c0-0.3-0.1-0.6-0.3-0.8
		l-0.6-0.7l0-0.4c0-0.2,0-0.4-0.1-0.6l-0.3-1c0-0.1-0.1-0.2-0.1-0.3l-0.3-0.6l0-0.2c0-0.2,0.1-0.3,0.1-0.5l-0.1-1.2
		c-0.1-0.6-0.5-1.2-1.2-1.3l-0.1,0l-0.3-1.4c-0.1-0.3-0.2-0.6-0.4-0.8l-0.7-0.7l-0.1-0.2l0.1-0.2c0.3-0.2,0.5-0.4,0.6-0.7l0.7-2.1
		c0.1-0.2,0.1-0.4,0.1-0.6l-0.1-0.7l0.4-0.6c0.1-0.2,0.2-0.5,0.2-0.7v-1c0-0.4-0.2-0.8-0.5-1.1l-0.7-0.6c0.1-0.2,0.2-0.4,0.2-0.6
		l0.1-1.1c0-0.3,0-0.6-0.2-0.9l-0.1-0.1l12.4-0.1l21-0.5l17.5-0.7l11.2-0.6c0,0.1,0.1,0.1,0.1,0.2l0.2,0.2l0.3,0.9
		c0.1,0.4,0.5,0.7,0.9,0.9l0.2,0.1l-0.7,1.5c-0.1,0.3-0.2,0.6-0.1,1l0.4,1.6l0.2,1.8c0,0.2,0.1,0.5,0.3,0.7l0.5,0.8l0.2,1
		c0,0.1,0.1,0.3,0.1,0.4l0.5,1c0.1,0.3,0.4,0.5,0.7,0.7l1.1,0.5c0.1,0,0.2,0.1,0.3,0.1l2.4,0.5l0.4,0.9c0,0,0,0,0,0.1
		c0,0.2,0,0.3,0,0.5c0,0,0,0.1,0,0.1c0.1,0.2,0.1,0.3,0.3,0.5l0.8,0.9c0.1,0.1,0.1,0.1,0.2,0.2l1.7,1.3l0.1,0.8
		c0.1,0.4,0.2,0.7,0.5,0.9l1,0.8c0.1,0.1,0.1,0.1,0.2,0.1L173.1,121.3z M102,9.3l8.5-0.2c0.7,0,1.2-0.5,1.4-1.2l0.2-1
		c0-0.1,0-0.2,0-0.3l-0.1-3.3l0.6,0.1l0.3,0.3l0.6,2.9c0,0,0,0.1,0,0.1l0.9,2.9l-0.1,1.3c0,0.4,0.1,0.8,0.4,1.1l0.9,1
		c0.1,0.2,0.3,0.3,0.5,0.4l1,0.4c0.2,0.1,0.4,0.1,0.5,0.1h1.7l0.7,0.5c0.2,0.1,0.4,0.2,0.7,0.3l3.7,0.4l0,0.1
		c0.1,0.4,0.4,0.7,0.7,0.9l1.1,0.6c0.3,0.2,0.7,0.2,1,0.1l2.7-0.6c0.4-0.1,0.7-0.3,0.9-0.7l0.3-0.5l0,0c0.2,0,0.4-0.1,0.6-0.2
		l0.1-0.1l0.8-0.1h2l2.9,1.2c-0.1,0.4,0,0.9,0.3,1.2c0.3,0.4,0.8,0.6,1.2,0.5l0.5,0l0.2,0.1l0,0.5c0,0.3,0.1,0.6,0.3,0.8l0.6,0.7
		c0.1,0.2,0.3,0.3,0.5,0.4l1.1,0.5c0.4,0.2,0.9,0.2,1.3,0c0.4-0.2,0.7-0.6,0.8-1l0.1-0.6l0.3,0l0.2,0l0.1,0.4
		c0.1,0.4,0.4,0.6,0.8,0.8l2.5,1.1l0,0.1c0.1,0.4,0.4,0.7,0.7,0.9l2,1c0.2,0.1,0.4,0.1,0.6,0.2l1.4,0.1c0.2,0,0.5,0,0.7-0.1l2.2-0.9
		c0.2-0.1,0.3-0.2,0.5-0.3l0.9-0.9l1.3-0.9c0.1,0.1,0.2,0.2,0.3,0.2l0.2,0.5c0.2,0.6,0.7,1,1.4,1h1c0.1,0,0.3,0,0.4-0.1l0.9-0.3
		l2,0.1c0.2,0,0.3,0,0.5,0l1-0.3l1.4-0.1l0.3,0.3c0.1,0.4,0.4,0.7,0.7,0.8l0.7,0.3l-2.4,1.3l-1,0.3c-0.1,0-0.1,0-0.2,0.1l-2.1,0.9
		c0,0-0.1,0-0.1,0.1l-3.3,2c-0.1,0.1-0.2,0.1-0.3,0.2l-4.1,4c-0.1,0.1-0.1,0.2-0.2,0.3l-1.1,1.7l-2.7,3.1l-1.1,0.9
		c-0.1,0.1-0.2,0.2-0.2,0.3l-0.5,0.7l-4.1,3.4c-0.1,0.1-0.2,0.2-0.3,0.4l-0.5,0.8l-0.4,0.4c-0.1,0.1-0.2,0.3-0.3,0.4l-0.2,0.4
		l-0.1,0c-0.8,0.1-1.3,0.7-1.3,1.5l0.4,8.5l-0.1,0.8l-0.2,0.4l-1.7,0.9c-0.1,0-0.1,0.1-0.2,0.1l-2.2,1.6c-0.3,0.2-0.5,0.5-0.6,0.9
		l-0.2,0.8l-0.4,0.8l-0.7,0.8c-0.2,0.3-0.4,0.6-0.4,1v1.1c0,0.3,0.1,0.5,0.2,0.8l0.7,1.1c0.2,0.4,0.6,0.6,1.1,0.7l0.3,0l0.5,0.9
		l-0.9,2.2c-0.1,0.2-0.1,0.5-0.1,0.7l0.2,1.7l-0.4,0.8c-0.1,0.3-0.2,0.7-0.1,1l0.6,2.1l-0.1,1.4l-0.4,0.9c-0.3,0.6-0.1,1.4,0.5,1.8
		l1.7,1.2l1,1c0.1,0.1,0.3,0.2,0.4,0.3l1.1,0.5c0.1,0.1,0.2,0.1,0.4,0.1l1.2,0.2l0.4,0.6c0.1,0.2,0.3,0.3,0.5,0.5l1,0.6
		c0.1,0,0.2,0.1,0.3,0.1l1.3,0.5l1.2,0.8l1.3,2c0.1,0.1,0.2,0.2,0.3,0.3l2.1,1.9c0.1,0.1,0.2,0.1,0.3,0.2l1.1,0.6
		c0.1,0.1,0.3,0.1,0.4,0.1l0.7,0.1l0.7,0.5l0.9,0.9l0.7,1l0.4,2.6c0,0.1,0,0.1,0,0.2l0.2,0.8l0,0c0,0.1,0,0.1,0,0.2l-10.9,0.6
		l-17.5,0.7l-21,0.5l-11.1,0.1L97.9,70c0-0.3-0.1-0.6-0.3-0.8l-0.7-1c-0.1-0.2-0.3-0.3-0.4-0.4l-1-0.6c-0.1-0.1-0.3-0.1-0.5-0.2
		l-0.4-0.1l-0.9-1.6c0-0.1-0.1-0.2-0.2-0.2l-0.2-0.2l0.5-0.5l0.9-0.5c0.2-0.1,0.4-0.3,0.5-0.5l0.6-1.1c0.1-0.1,0.1-0.2,0.1-0.3
		l0.6-2c0.1-0.2,0.1-0.4,0.1-0.6c0-0.2,0-0.3-0.1-0.5L96.4,58l0.1-0.8c0-0.1,0-0.2,0-0.3l-0.3-2.1v-1c0-0.1,0-0.2,0-0.3l-0.2-1
		c0-0.2-0.1-0.4-0.2-0.6l-1.1-1.6l-0.2-0.6l0.1-0.8c0-0.3,0-0.5-0.1-0.8l-0.4-0.8l-0.1-3.6l0.2-0.9c0.1-0.3,0-0.7-0.1-1l-0.4-0.8
		l0.1-1.1c0-0.1,0-0.2,0-0.3l-0.3-2.2v-2.1c0-0.1,0-0.3-0.1-0.4l-0.2-0.7l0.1-0.7c0-0.1,0-0.2,0-0.3v-1.1c0-0.1,0-0.2,0-0.3
		l-0.5-2.3c0-0.1-0.1-0.2-0.1-0.3l-1.2-2.7l0-0.1c0.1-0.3,0.1-0.6,0-0.9L90,22.1l-0.2-0.9l0.1-1.9c0-0.2,0-0.4-0.1-0.5l-0.1-0.3
		l0.1-0.7c0-0.2,0-0.3,0-0.5l-0.3-1.7l0.5-1.8c0.1-0.3,0.1-0.6,0-1L89.8,12l-0.6-2.7L102,9.3z M12.3,6.6l16.2,1.1l26.5,1.1l22.6,0.5
		h8.6l0.3,0.5l0.7,3c0,0.1,0,0.1,0.1,0.2l0.2,0.6l-0.5,1.6c-0.1,0.2-0.1,0.4,0,0.6l0.3,1.7l-0.2,0.8c0,0.2,0,0.5,0,0.7l0.1,0.4
		L87,21.2c0,0.1,0,0.2,0,0.3l0.2,1.1c0,0.1,0,0.1,0.1,0.2l1.1,3.1l-0.1,0.2c-0.1,0.3-0.1,0.7,0.1,1.1l1.4,3.1l0.5,2v0.8L90,34
		c0,0.2,0,0.5,0,0.7l0.3,0.8v2c0,0.1,0,0.1,0,0.2l0.3,2.1l-0.1,1.4c0,0.3,0,0.5,0.2,0.8l0.4,0.7L91,43.3c0,0.1,0,0.2,0,0.3l0.1,4.1
		c0,0.2,0.1,0.4,0.2,0.6l0.3,0.7l-0.1,0.7c0,0.2,0,0.5,0.1,0.7l0.4,1c0,0.1,0.1,0.2,0.2,0.3l1.1,1.5l0.1,0.6v1c0,0.1,0,0.1,0,0.2
		l0.3,2l-0.1,0.7l-20.3-0.1l-21.6-0.5l-23.3-1L8.9,54.8L12.3,6.6z M7.3,72.4l0.4-0.9c0.1-0.2,0.1-0.3,0.1-0.5l0.8-13.2L28.2,59
		l23.3,1l21.7,0.5l20,0.1l-0.4,0.9l-0.7,0.4C92,62,92,62,91.9,62.1l-1,1c-0.1,0.1-0.3,0.3-0.3,0.5l-0.3,0.8C90,65,90.1,65.6,90.5,66
		l0.7,0.8l1.2,2.1c0.2,0.4,0.6,0.6,1,0.7l0.8,0.2l0.6,0.3l0.3,0.4L95.2,99h-0.4c-0.4,0-0.9,0.2-1.1,0.6c-0.3,0.4-0.4,0.8-0.3,1.2
		l0.3,1.2c0,0.1,0.1,0.3,0.2,0.4l0.3,0.5c-0.3,0.3-0.5,0.7-0.5,1.1c0,0.1,0,0.3,0.1,0.4l0.3,1.1c0.1,0.3,0.2,0.5,0.4,0.7l0.7,0.6
		l-0.4,0.7c-0.2,0.3-0.2,0.6-0.2,0.9l0.1,0.8l-0.5,1.3c-0.2,0.1-0.3,0.3-0.4,0.5l-0.5,1c-0.1,0.2-0.1,0.4-0.1,0.6c0,0,0,0,0,0
		l-0.4-0.4c-0.1-0.1-0.3-0.2-0.5-0.3c-0.1,0-0.1,0-0.2,0c-0.1,0-0.2-0.1-0.3-0.1c0,0-0.1,0-0.1,0l-0.2,0c-0.1,0-0.1-0.1-0.2-0.1
		l-1.1-0.5c-0.1-0.1-0.3-0.1-0.5-0.1l-0.6-0.1l-1.4-1.3c-0.3-0.3-0.7-0.4-1.1-0.4l-4.6,0.5l-2-0.3c-0.5-0.1-1,0.1-1.3,0.5l-0.6,0.7
		l-0.1,0.1l-3.8-2.1l-1.2-1.2c-0.3-0.3-0.6-0.4-1-0.4L58,107.1l-20.5-0.7l-21.2-1.1l-11.3-0.8L7.3,72.4z M12.9,139l-10.1-0.7l2.1-31
		l11.3,0.8l21.3,1.1l20.5,0.7l13,0.2l0.9,0.9c0.1,0.1,0.2,0.2,0.3,0.2l4.6,2.5c0.4,0.2,0.8,0.2,1.2,0.1l1.1-0.4
		c0.3-0.1,0.5-0.2,0.6-0.5l0.3-0.4l1.4,0.2c0.1,0,0.2,0,0.4,0l4.2-0.5l1.3,1.1c0.2,0.2,0.5,0.3,0.8,0.4l0.8,0.1l0.4,0.2
		c0.3,0.5,0.8,0.7,1.4,0.7l0.4,0l0.6,0.6c0.1,0.1,0.3,0.3,0.5,0.3l0.6,0.2l0.3,0.6c0.1,0.2,0.2,0.3,0.4,0.5l1,0.9
		c0.2,0.1,0.3,0.2,0.6,0.3l1,0.3c0,0,0,0,0,0c0,0,0,0,0,0l-0.1,0.4c-0.1,0.4-0.1,0.8,0.1,1.1l0.6,1l0.2,0.6l-0.1,0.8
		c0,0.4,0.1,0.8,0.3,1.1l0.7,0.8l0.1,0.6c0,0.3,0.1,0.5,0.3,0.7l1.2,1.5v0.5c0,0.3,0.1,0.5,0.2,0.8l0.6,0.9l0.1,0.5l-0.2,0.8
		c0,0.1,0,0.2,0,0.3v1.1c0,0.1,0,0.2,0,0.3l0.1,0.7l0,0.1c-0.1,0.4,0,0.9,0.3,1.2c0.2,0.3,0.5,0.4,0.8,0.5c0.1,0.4,0.4,0.7,0.8,0.9
		l0.1,0l0,0.2c-0.1,0.3,0,0.7,0.2,1l0.3,0.5l-0.2,0.8c-0.1,0.4,0,0.9,0.3,1.2l0.4,0.5l-0.1,0.5c0,0.1,0,0.2,0,0.3v1.4
		c0,0.1,0,0.3,0.1,0.4l0.5,2l-0.5,2.9c-0.1,0.5,0.1,1.1,0.6,1.4l0.6,0.4l0.1,0.4v0.9c0,0.4,0.1,0.7,0.4,1l0.7,0.8l0.6,1.8
		c0.1,0.2,0.2,0.3,0.3,0.5l0.9,1c0.1,0.1,0.2,0.2,0.2,0.2l0.6,0.4l0.1,0.6c0,0.2,0.1,0.5,0.3,0.6l0.5,0.6l0,0.1L90,158.5l-16.5-0.1
		l-31.6-0.8L27,156.8l0.8-15c0-0.6-0.3-1.1-0.8-1.3l-1.1-0.6c-0.2-0.1-0.4-0.2-0.6-0.2L12.9,139z M120.2,209.2l-15.2,0.3H74.6
		l-30.3-0.7l-19.9-0.9l2.4-48.2l14.9,0.8l31.7,0.8l16.5,0.1c0,0,0,0,0,0c0,0,0,0,0,0l21-0.2l2.6,2c0.3,0.3,0.8,0.3,1.1,0.3
		c0,0,0,0.1-0.1,0.1l-0.4,0.9l-1.2,1.6c-0.3,0.4-0.3,0.9-0.2,1.4l0.4,1c0,0.1,0.1,0.2,0.2,0.3l1,1.4c0.1,0.1,0.2,0.2,0.3,0.3
		l0.6,0.4v0.4c0,0.3,0.1,0.6,0.3,0.9l1.7,2.1c0.2,0.2,0.4,0.4,0.7,0.5l0.7,0.2l0.4,0.3L120.2,209.2z M193.6,209.3l0.1,0.7l-0.4,0.3
		c-0.5,0.4-0.7,1.2-0.4,1.8l0,0.1c-0.2,0-0.3,0.1-0.5,0.1l-1.1,0.5c-0.2,0.1-0.3,0.2-0.4,0.3c-0.2-0.1-0.4-0.2-0.7-0.1
		c-0.6,0-1.1,0.4-1.3,0.9l-0.4,1.1c-0.1,0.2-0.1,0.5-0.1,0.8l0.2,1.1c-0.3,0.2-0.5,0.4-0.6,0.8c-0.1,0.4-0.1,0.8,0.1,1.2l0,0
		l-0.4,0.3c-0.3,0.2-0.6,0.6-0.6,1.1c0,0.4,0.1,0.8,0.4,1.1l0.2,0.2l0,0.1c0,0.1-0.1,0.1-0.1,0.2l-0.4,1l-5.4,0.6l0.4-0.6l0.9-0.5
		c0.2-0.1,0.3-0.2,0.4-0.4l0.8-1c0.2-0.3,0.3-0.6,0.3-0.9v-1.1c0-0.1,0-0.3-0.1-0.4l-0.3-1c-0.1-0.2-0.1-0.3-0.3-0.5l-0.8-1
		c-0.1-0.1-0.2-0.2-0.4-0.3l-1-0.6c-0.3-0.2-0.5-0.2-0.8-0.2l-24.3,1.6l-21.3,0.9l-12,0.3l-1-43.1c0-0.4-0.2-0.9-0.6-1.1l-1.1-0.8
		c-0.1-0.1-0.3-0.2-0.4-0.2l-0.5-0.2l-1.1-1.3v-0.6c0-0.5-0.2-0.9-0.6-1.2l-1-0.7l-0.8-1l-0.1-0.1l0.8-1.1c0.1-0.1,0.1-0.2,0.2-0.3
		l0,0l0.1,0c0.7,0.1,1.3-0.3,1.5-1l0.1-0.3c0.1-0.2,0.1-0.5,0-0.7l-0.2-1.1c0-0.2-0.1-0.4-0.2-0.5l-0.7-1.1
		c-0.2-0.3-0.4-0.5-0.7-0.6l-0.8-0.3c-0.4-0.2-0.9-0.1-1.3,0.2l-0.2,0.1l-2.2-1.7c0,0,0,0,0,0c0,0,0,0,0,0l-0.6-0.4l0-0.2
		c0-0.4-0.1-0.8-0.3-1l-0.6-0.8l-0.1-0.8c-0.1-0.4-0.3-0.7-0.6-0.9l-0.9-0.6l-0.6-0.7l-0.6-1.8c0-0.1-0.1-0.2-0.1-0.2l12,0.1l9-0.2
		l19.6-1.2l7.5-0.8l0.2,0.3c0.1,0.2,0.2,0.3,0.4,0.5l1.9,1.4l0.6,0.8c0,0.1-0.1,0.2-0.1,0.3l-0.2,1.1c0,0.1,0,0.2,0,0.3v2.1
		c0,0.1,0,0.2,0,0.3l0.4,2.2c0,0.2,0.1,0.4,0.3,0.6l0.2,0.3l0.5,1.9c0,0.1,0.1,0.2,0.1,0.3l0.6,1l0.3,0.9c0.1,0.3,0.3,0.6,0.5,0.8
		l1.3,1l0.9,1c0.1,0.1,0.2,0.2,0.3,0.2l0.8,0.5l0.2,0.6c0.1,0.3,0.3,0.5,0.6,0.7l2.6,1.6l0.8,0.6l0.4,0.6l1.1,4.6
		c0,0.2,0.1,0.4,0.3,0.6l0.8,1c0.4,0.4,1,0.6,1.5,0.5l1.1-0.3c0.4-0.1,0.7-0.3,0.9-0.7l0.2-0.3l0.4,0.1c0.1,0,0.2,0.1,0.4,0.1
		l0.7,0.1l0.8,0.5l-0.3,0.5c-0.1,0.2-0.2,0.5-0.2,0.8l0.1,1.5l-0.7,1.3c0,0.1-0.1,0.2-0.1,0.3l-0.5,1.7l-0.5,0.9
		c-0.1,0.2-0.2,0.4-0.2,0.6l-0.1,1.1c0,0.1,0,0.3,0,0.4l0.2,1c0.1,0.3,0.2,0.5,0.3,0.7l2,2.2c0.1,0.1,0.2,0.2,0.3,0.2l3.2,2.2
		c0.1,0,0.1,0.1,0.2,0.1l0,0.3c0.1,0.4,0.3,0.8,0.7,1.1s0.9,0.2,1.3,0l0.4-0.2l0.9,0.5l0.4,0.8c0.1,0.2,0.3,0.4,0.4,0.5l1,0.7
		c0.1,0.1,0.2,0.1,0.3,0.2l0.3,0.1l0.1,1.5c0,0.2,0.1,0.4,0.2,0.6l1,1.6l-0.1,0.3l-0.6,0.9c-0.3,0.5-0.3,1.1,0,1.5l1.4,2.3l1.7,2.2
		c0.4,0.6,1.2,0.7,1.8,0.4l0.4-0.2l0.3,0.2l-0.2,0.9C193.5,209,193.5,209.1,193.6,209.3z M206.4,192.5l-0.6,0.9
		c-0.2,0.3-0.3,0.7-0.2,1.1l0.2,1.1c0,0.2,0.1,0.4,0.3,0.6l0.1,0.1l-1.3,0.3c-0.2,0-0.3,0.1-0.4,0.2l-1,0.7l-0.9,0.4
		c-0.4,0.2-0.7,0.5-0.8,0.9l-0.3,1c-0.1,0.2-0.1,0.4,0,0.7l0.2,1.1c0,0.2,0.1,0.5,0.3,0.6l0.5,0.7l-0.3-0.2
		c-0.1-0.1-0.3-0.1-0.4-0.2l-2-0.6l-0.9-0.5c-0.1-0.1-0.3-0.1-0.4-0.1l-1.1-0.2c-0.3-0.1-0.5,0-0.8,0.1l-1,0.4
		c-0.2,0.1-0.5,0.3-0.6,0.5l-1.6,2.1c-0.1,0.1-0.2,0.3-0.2,0.4c-0.1,0-0.1,0-0.2,0.1l-0.9-1.1l-0.9-1.4l0.2-0.4
		c0.1-0.2,0.2-0.3,0.2-0.5l0.2-1.1c0.1-0.3,0-0.7-0.2-1l-1.1-1.8l-0.2-2.1c0-0.6-0.4-1-0.9-1.2l-1-0.4l-0.6-0.4l-0.5-0.8
		c-0.1-0.2-0.3-0.4-0.5-0.5l-1.9-1.1c-0.2-0.1-0.5-0.2-0.8-0.2c-0.2-0.5-0.7-0.8-1.3-0.8h-0.2l-2.7-1.8l-1.6-1.8l-0.1-0.4l0.1-0.6
		l0.5-0.8c0.1-0.1,0.1-0.2,0.2-0.4l0.5-1.7l0.8-1.5c0.1-0.2,0.2-0.5,0.2-0.7l-0.1-1.5l0.5-1c0.1-0.2,0.2-0.4,0.2-0.7v-0.4
		c0-0.5-0.2-0.9-0.7-1.2l-2.1-1.4c-0.2-0.1-0.4-0.2-0.6-0.2l-0.9-0.1l-1-0.4c-0.3-0.1-0.5-0.1-0.8-0.1l-0.5,0.1
		c-0.4,0.1-0.7,0.3-1,0.7l-0.1,0.2l-1-4.2c0-0.1-0.1-0.3-0.2-0.4l-0.6-1c-0.1-0.1-0.2-0.3-0.3-0.4l-1-0.8c0,0-0.1-0.1-0.1-0.1
		l-2.3-1.4l-0.2-0.6c-0.1-0.3-0.3-0.5-0.6-0.7l-1-0.6l-0.9-1c-0.1-0.1-0.1-0.1-0.2-0.2l-1.1-0.8l-0.2-0.6c0-0.1-0.1-0.2-0.1-0.3
		l-0.5-1l-0.6-2c-0.1-0.2-0.1-0.4-0.3-0.5l-0.2-0.2l-0.3-1.7v-1.8l0.1-0.8l0.3-0.6l0.6-0.6c0.2-0.2,0.4-0.6,0.4-0.9l0.1-1.1
		c0-0.3-0.1-0.7-0.3-1l-0.1-0.1l2.3-1.2c0.3-0.2,0.6-0.5,0.7-0.9l0.3-1c0-0.1,0.1-0.3,0.1-0.4v-0.9l0.1-0.3l1.4-1.9
		c0.2-0.3,0.3-0.6,0.3-1l-0.2-2.3c0-0.3-0.2-0.6-0.4-0.9l-1.5-1.6l0.2-1.3l0.1-0.2l3.3-0.7c0.2,0,0.4-0.1,0.6-0.3l0.9-0.7l2-0.8
		c0.2-0.1,0.3-0.2,0.5-0.3l1-0.9c0.3-0.2,0.4-0.6,0.5-0.9l0.2-1.9l1.2-1.7c0.1-0.2,0.2-0.4,0.3-0.7l0.4-3.3c0-0.2,0-0.5-0.1-0.7
		l-0.4-1.1c-0.1-0.2-0.2-0.4-0.3-0.5l-1-1c-0.1-0.1-0.2-0.2-0.3-0.2l-1-0.6l-0.5-0.4l-0.1-0.8c-0.1-0.4-0.3-0.7-0.6-0.9l-0.5-0.4
		l16.5-1l13.9-1.3l-0.1,1.6c0,0.1,0,0.2,0,0.4l0.2,1c0,0.1,0.1,0.3,0.1,0.4l1.1,2.1c0.1,0.1,0.2,0.3,0.3,0.4l0.7,0.6l0.2,1.2
		c0,0.1,0.1,0.3,0.2,0.4l0.6,1l0.3,0.9c0,0.1,0.1,0.3,0.2,0.4l0.9,1.3l0,0l0,0.2l3.7,38.8l-0.6,0.7c-0.4,0.4-0.5,1.1-0.2,1.6
		l0.2,0.4l-0.3,0.5c-0.1,0.3-0.2,0.5-0.2,0.8l0.1,1.1c0,0.2,0.1,0.4,0.2,0.6l0.8,1.4c0,0.1,0.1,0.1,0.2,0.2l0.5,0.5l-0.1,0.4
		c0,0.2,0,0.5,0.1,0.7l0.6,1.8l0,0.2c-0.1,0.1-0.2,0.2-0.3,0.3l-1.1,2.1c-0.1,0.2-0.2,0.4-0.2,0.6l-0.1,0.8l-1.1,1.9l-0.7,0.9
		l-1,0.9c-0.2,0.2-0.4,0.5-0.5,0.8l-0.2,1.1c-0.1,0.3,0,0.6,0.1,0.9l-0.1,1c-0.2,0.2-0.3,0.5-0.3,0.8l-0.1,1.8l-0.4,0.8
		c-0.2,0.5-0.2,1,0.1,1.4l0.4,0.7L206.4,192.5z M245.6,169.7c-0.2,0.1-0.4,0.1-0.5,0.3l-1.3,1l-0.4-0.2c-0.4-0.3-0.9-0.3-1.3-0.1
		l-0.8,0.3l-0.8,0.1c-0.8,0.1-1.4,0.8-1.3,1.6l0.1,1.1c0,0.1,0,0.2,0.1,0.3l0.3,0.8l-0.1,0.4l-0.5,0.6l-0.9,0.5
		c-0.4,0.2-0.7,0.6-0.7,1.1l-0.2,1.7l-0.2,0.2l-0.5,0c-0.7-0.1-1.3,0.3-1.5,1l-0.7,2.2c-0.1,0.2-0.1,0.4-0.1,0.6l0.1,0.9l-0.1,0.3
		l-0.1,0l-1.5-0.1l-0.4-0.2l-0.7-1.2c-0.1-0.3-0.4-0.5-0.6-0.6l-1-0.5c-0.6-0.3-1.2-0.2-1.7,0.3c-0.4,0.4-0.5,1-0.3,1.5l-0.1,0
		c-0.1,0.1-0.3,0.2-0.4,0.3l-0.8,1c-0.2,0.3-0.3,0.7-0.3,1l0.1,0.6l-0.4,0.5c0,0,0,0,0,0l-0.5-0.1l-0.5-0.7c-0.2-0.3-0.6-0.5-1-0.6
		c-0.4,0-0.8,0.1-1.1,0.4l-0.7,0.7l-0.8,0.3c-0.3,0.1-0.5,0.3-0.6,0.5l-0.7,1c0,0,0,0,0,0.1l-3.3-1.2c-0.4-0.1-0.8-0.1-1.2,0.1
		l-0.8,0.4l-1.2,0.1c-0.3,0-0.6,0.1-0.8,0.3c-0.3,0-0.5,0.1-0.8,0.2l-0.6,0.4l-1.7-0.2c-0.1,0-0.1,0-0.2,0c0,0,0,0-0.1,0l0-0.3
		c0.1-0.2,0.2-0.4,0.2-0.6l0.3-2.2c0-0.3,0-0.5-0.1-0.8l0.7-0.6c0.1-0.1,0.1-0.1,0.2-0.2l0.8-1c0-0.1,0.1-0.1,0.1-0.2l1.4-2.3
		c0.1-0.2,0.2-0.4,0.2-0.6l0.1-0.8l0.8-1.5l0,0c0.3-0.2,0.5-0.6,0.6-0.9l0.2-1.1c0-0.2,0-0.5-0.1-0.7l-0.6-1.8l0.1-0.8
		c0.1-0.4,0-0.9-0.3-1.2l-0.8-0.9l-0.6-1l0-0.4l0.4-0.8c0.2-0.4,0.2-0.9,0-1.3l-0.1-0.2l0.4-0.4c0.3-0.3,0.4-0.7,0.4-1.1l-3.5-37.3
		l1,0.2c0.2,0.1,0.5,0,0.7,0l1.1-0.3c0.1,0,0.2-0.1,0.3-0.1l2.2-1.1c0.1,0,0.1-0.1,0.2-0.1l1.8-1.3h0.1c0,0,0.1,0,0.1,0l6.2-0.6
		l17-2.1l0.3,0.2l1.9,15.1l3.1,27.6l0,0c-0.5,0.5-0.6,1.1-0.3,1.7l0.4,0.8l-0.2,0.4c-0.2,0.5-0.1,1.1,0.3,1.5l0.2,0.2L245.6,169.7z
		 M296.5,137.5c0,0.1-0.1,0.2-0.1,0.3l-0.5,3.2c0,0.2,0,0.3,0,0.5l0.2,1l0,0.2c-0.1,0.1-0.3,0.2-0.4,0.4c-0.2,0.3-0.3,0.7-0.2,1.1
		l0.2,0.8l-0.2,0.8c0,0.1,0,0.3,0,0.4l0.1,0.9l-0.3,1.4l-1,0.9c-0.1,0.1-0.2,0.2-0.2,0.3l-1.2,2l-1.3,1.1l-1-0.4
		c-0.6-0.2-1.3,0-1.7,0.5l-0.9,1.4c-0.2,0.2-0.3,0.5-0.3,0.8v0.2l-0.8,0.4c-0.3,0.2-0.5,0.4-0.7,0.7l-0.4,1
		c-0.1,0.2-0.1,0.4-0.1,0.5v0.7l-0.5,0.8c-0.1,0.2-0.2,0.5-0.2,0.7l-0.4-0.2c-0.6-0.3-1.4,0-1.8,0.6l-0.7,1.1c0,0.1-0.1,0.2-0.1,0.2
		l-0.4,1c-0.1,0.2-0.1,0.4-0.1,0.5v0.7l0,0c-0.1,0.1-0.2,0.3-0.2,0.5l-0.3,1.1c-0.1,0.4,0,0.8,0.2,1.2l0.2,0.3l0.1,0.8l-0.4,0.3
		c-0.4,0.3-0.7,0.7-0.7,1.2v0.6l-0.3,0.4l-1.1,0.5l0,0l-0.4-0.5c0-0.1-0.1-0.1-0.2-0.2l-1-0.9c-0.2-0.2-0.5-0.3-0.8-0.4l-0.5-0.1
		l-0.5-0.5l-0.7-1.6c-0.2-0.4-0.5-0.6-0.8-0.8c-0.4-0.1-0.8-0.1-1.1,0.1l-1.2,0.6c-0.1,0.1-0.2,0.1-0.3,0.2l-1.1,1
		c-0.1,0.1-0.2,0.2-0.3,0.3l-0.2,0.3h-0.2c-0.2,0-0.4,0.1-0.6,0.2l-0.2,0.1l-0.3-0.3c-0.2-0.2-0.5-0.3-0.7-0.4l-1.4-0.2
		c-0.1,0-0.2,0-0.4,0l-1,0.1c-0.4,0-0.8,0.3-1,0.6l-0.3,0.4l-1.7-1.3c-0.2-0.2-0.4-0.3-0.7-0.3l-0.6-0.1c-0.1,0-0.3,0-0.4,0l-2,0.2
		l-0.4-0.1l-1.2-1.6l-0.6-1.1c-0.2-0.3-0.4-0.6-0.8-0.7l-2.6-1c-0.3-0.1-0.6-0.1-0.9,0l-1.1,0.3l-0.5-0.3c-0.3-0.2-0.7-0.3-1.1-0.2
		l-3-26.2l-1.8-14.3l10-1.7l4.3-0.9c0.2,0.1,0.4,0.2,0.7,0.3l2,0.3l0.8,0.4c0.1,0.1,0.2,0.1,0.4,0.1l1.2,0.2l0.8,0.6
		c-0.1,0.3-0.1,0.7,0,1c0.2,0.5,0.7,0.9,1.2,1l1,0.1c0.4,0,0.8-0.1,1.1-0.4l0.6-0.6h1.3l0.9,0.5c0.1,0.1,0.2,0.1,0.4,0.1l1,0.2
		c0.4,0.1,0.8,0,1.2-0.3l0.9-0.7l0.9-0.3c0.1,0,0.2-0.1,0.3-0.2l0.9-0.7l1.7-0.8l0.6,0.1c0.2,0,0.3,0,0.5,0l2.2-0.3
		c0.3,0,0.5-0.2,0.8-0.4l2.1-1.9c0.1-0.1,0.2-0.2,0.2-0.3l1.1-1.6l0.8-0.9l3-2.2l4.5-2.7l3.3,19.3c-0.5,0.1-0.9,0.5-1,1l-0.3,1
		c-0.1,0.4,0,0.9,0.2,1.3l0.5,0.7l0.6,2.5L296.5,137.5z"/>
	<path fill="#FFFFFF" d="M178.2,24.2c0.1,0.4,0.4,0.7,0.8,0.9c0.2,0.1,0.4,0.1,0.6,0.1c0.2,0,0.4-0.1,0.6-0.2l1-0.5
		c0.2-0.1,0.4-0.2,0.5-0.4l0.8-0.9l0.6-0.5l2-0.8c0.1-0.1,0.3-0.1,0.4-0.3l1-0.9c0.2-0.1,0.3-0.3,0.4-0.5l0.3-0.8l0.8-0.8
		c0.4-0.4,0.5-0.9,0.4-1.4c-0.1-0.5-0.5-0.9-1-1l-0.4-0.1c-0.4-0.1-0.7,0-1,0.1l-1.1,0.6c-0.1,0-0.1,0.1-0.2,0.1l-1.8,1.3l-2.1,1.1
		c-0.1,0-0.1,0.1-0.2,0.1l-2.1,1.5c-0.4,0.3-0.6,0.7-0.6,1.2v0.7c0,0.1,0,0.3,0.1,0.4L178.2,24.2z"/>
	<path fill="#FFFFFF" d="M224.5,58.5c0.1,0,0.3,0,0.4-0.1l1.1-0.3c0.7-0.2,1.1-0.8,1.1-1.5l-0.2-1.9l0,0c0.2-0.6,0-1.3-0.5-1.6
		c-0.5-0.4-1.2-0.4-1.7,0l-0.8,0.6c-0.3,0.2-0.5,0.5-0.5,0.9l-0.2,1c0,0.1,0,0.2,0,0.3V57c0,0.5,0.2,0.9,0.6,1.1
		C223.9,58.4,224.2,58.5,224.5,58.5z"/>
</g>
</svg>
